G04*
G04 #@! TF.GenerationSoftware,Altium Limited,Altium Designer,20.0.13 (296)*
G04*
G04 Layer_Physical_Order=1*
G04 Layer_Color=255*
%FSLAX25Y25*%
%MOIN*%
G70*
G01*
G75*
%ADD14C,0.01000*%
%ADD19R,0.05000X0.13504*%
%ADD20C,0.05000*%
%ADD21C,0.06791*%
%ADD22R,0.06791X0.06791*%
%ADD23C,0.02362*%
D14*
X191339Y25383D02*
Y106191D01*
Y25383D02*
X194252Y22469D01*
X191339Y106191D02*
X191447Y106299D01*
Y106408D02*
X207972Y122933D01*
X191447Y106299D02*
Y106408D01*
X239272Y237008D02*
Y237579D01*
X261510Y243344D02*
X265037Y239817D01*
X245037Y243344D02*
X261510D01*
X239272Y237579D02*
X245037Y243344D01*
X184252Y106299D02*
X265037Y187085D01*
Y239817D01*
X239016Y237264D02*
Y237323D01*
Y237264D02*
X239272Y237008D01*
X198425Y43408D02*
Y106299D01*
X198425Y43408D02*
X204252Y37582D01*
X194252Y9843D02*
Y22469D01*
X184252Y21339D02*
Y106299D01*
X204252Y21339D02*
Y37582D01*
X174252Y9843D02*
Y142559D01*
X259016Y227323D01*
X74252Y9843D02*
X74410Y10000D01*
Y28740D02*
X82677Y37008D01*
X74410Y10000D02*
Y28740D01*
X104252Y21339D02*
Y142559D01*
X189016Y227323D01*
X114252Y142054D02*
X199016Y226818D01*
Y227323D01*
X114252Y9843D02*
Y142054D01*
X124252Y142559D02*
X209016Y227323D01*
X124252Y21339D02*
Y142559D01*
X134252D02*
X219016Y227323D01*
X134252Y9843D02*
Y142559D01*
X144252D02*
X229016Y227323D01*
X144252Y21339D02*
Y142559D01*
X154252D02*
X239016Y227323D01*
X154252Y9843D02*
Y142559D01*
X164252D02*
X249016Y227323D01*
X164252Y21339D02*
Y142559D01*
D19*
X44252Y21339D02*
D03*
X54252Y9843D02*
D03*
X64252Y21339D02*
D03*
X74252Y9843D02*
D03*
X84252Y21339D02*
D03*
X94252Y9843D02*
D03*
X104252Y21339D02*
D03*
X114252Y9843D02*
D03*
X124252Y21339D02*
D03*
X134252Y9843D02*
D03*
X144252Y21339D02*
D03*
X154252Y9843D02*
D03*
X164252Y21339D02*
D03*
X174252Y9843D02*
D03*
X184252Y21339D02*
D03*
X194252Y9843D02*
D03*
X204252Y21339D02*
D03*
X214252Y9843D02*
D03*
X224252Y21339D02*
D03*
X234252Y9843D02*
D03*
D20*
X214252D02*
X224410D01*
X102657D02*
X104429Y8071D01*
X255016Y47323D02*
X255359Y47666D01*
X234252Y9843D02*
X244094D01*
X248031Y13780D01*
X44252Y21339D02*
Y34488D01*
X39370Y39370D02*
X44252Y34488D01*
X54252Y9843D02*
X62992D01*
X64567Y8268D01*
X224252Y10000D02*
Y21339D01*
Y10000D02*
X224410Y9843D01*
X94252D02*
X102657D01*
X235016Y47323D02*
X235359Y46980D01*
D21*
X259016Y237323D02*
D03*
X249016D02*
D03*
X239016D02*
D03*
X229016D02*
D03*
X219016D02*
D03*
X209016D02*
D03*
X199016D02*
D03*
X189016D02*
D03*
X179016D02*
D03*
X215016Y47323D02*
D03*
X225016D02*
D03*
X235016D02*
D03*
X245016D02*
D03*
X255016D02*
D03*
X265016D02*
D03*
X275016D02*
D03*
X259016Y227323D02*
D03*
X249016D02*
D03*
X239016D02*
D03*
X229016D02*
D03*
X219016D02*
D03*
X209016D02*
D03*
X199016D02*
D03*
D22*
X169016Y237323D02*
D03*
X205016Y47323D02*
D03*
X189016Y227323D02*
D03*
D23*
X207972Y122933D02*
D03*
X198425Y106299D02*
D03*
X248031Y13780D02*
D03*
X39370Y39370D02*
D03*
X82677Y37008D02*
D03*
X64567Y8268D02*
D03*
X224410D02*
D03*
X104429D02*
D03*
M02*
