M48
;Layer_Color=9474304
;FILE_FORMAT=2:5
INCH,LZ
;TYPE=PLATED
T1F00S00C0.02362
T2F00S00C0.04528
%
T01
X0064567Y0008268
X0104429
X022441
X0248031Y001378
X0198425Y0106299
X0207972Y0122933
X0082677Y0037008
X003937Y003937
T02
X0205016Y0047323
X0215016
X0225016
X0235016
X0245016
X0255016
X0265016
X0275016
X0179016Y0237323
X0169016
X0189016
X0199016
X0209016
X0219016
X0229016
X0239016
X0249016
X0259016
Y0227323
X0249016
X0239016
X0229016
X0219016
X0209016
X0199016
X0189016
M30
